<?xml version="1.0" encoding="us-ascii" standalone="no"?><svg xmlns="http://www.w3.org/2000/svg" xmlns:xlink="http://www.w3.org/1999/xlink" contentStyleType="text/css" height="278px" preserveAspectRatio="none" style="width:643px;height:278px;background:#FFFFFF;" version="1.1" viewBox="0 0 643 278" width="643px" zoomAndPan="magnify"><defs/><g><!--class socket--><g id="elem_socket"><rect codeLine="2" fill="#F1F1F1" height="48" id="socket" rx="2.5" ry="2.5" style="stroke:#181818;stroke-width:0.5;" width="76" x="168" y="115"/><ellipse cx="183" cy="131" fill="#B4A7E5" rx="11" ry="11" style="stroke:#181818;stroke-width:1.0;"/><path d="M179.4277,127.2651 L179.4277,125.1069 L186.8071,125.1069 L186.8071,127.2651 L184.3418,127.2651 L184.3418,135.3418 L186.8071,135.3418 L186.8071,137.5 L179.4277,137.5 L179.4277,135.3418 L181.8931,135.3418 L181.8931,127.2651 Z " fill="#000000"/><text fill="#000000" font-family="sans-serif" font-size="14" font-style="italic" lengthAdjust="spacing" textLength="44" x="197" y="136.291">socket</text><line style="stroke:#181818;stroke-width:0.5;" x1="169" x2="243" y1="147" y2="147"/><line style="stroke:#181818;stroke-width:0.5;" x1="169" x2="243" y1="155" y2="155"/></g><!--class udp_socket--><g id="elem_udp_socket"><rect codeLine="3" fill="#F1F1F1" height="48" id="udp_socket" rx="2.5" ry="2.5" style="stroke:#181818;stroke-width:0.5;" width="110" x="7" y="223"/><ellipse cx="22" cy="239" fill="#ADD1B2" rx="11" ry="11" style="stroke:#181818;stroke-width:1.0;"/><path d="M24.4731,245.1431 Q23.8921,245.4419 23.2529,245.5913 Q22.6138,245.7407 21.9082,245.7407 Q19.4014,245.7407 18.0815,244.0889 Q16.7617,242.437 16.7617,239.3159 Q16.7617,236.1865 18.0815,234.5347 Q19.4014,232.8828 21.9082,232.8828 Q22.6138,232.8828 23.2612,233.0322 Q23.9087,233.1816 24.4731,233.4805 L24.4731,236.2031 Q23.8423,235.6221 23.2488,235.3523 Q22.6553,235.0825 22.0244,235.0825 Q20.6797,235.0825 19.9949,236.1492 Q19.3101,237.2158 19.3101,239.3159 Q19.3101,241.4077 19.9949,242.4744 Q20.6797,243.541 22.0244,243.541 Q22.6553,243.541 23.2488,243.2712 Q23.8423,243.0015 24.4731,242.4204 Z " fill="#000000"/><text fill="#000000" font-family="sans-serif" font-size="14" lengthAdjust="spacing" textLength="78" x="36" y="244.291">udp_socket</text><line style="stroke:#181818;stroke-width:0.5;" x1="8" x2="116" y1="255" y2="255"/><line style="stroke:#181818;stroke-width:0.5;" x1="8" x2="116" y1="263" y2="263"/></g><!--class tcp_socket--><g id="elem_tcp_socket"><rect codeLine="4" fill="#F1F1F1" height="48" id="tcp_socket" rx="2.5" ry="2.5" style="stroke:#181818;stroke-width:0.5;" width="104" x="298" y="223"/><ellipse cx="313" cy="239" fill="#ADD1B2" rx="11" ry="11" style="stroke:#181818;stroke-width:1.0;"/><path d="M315.4731,245.1431 Q314.8921,245.4419 314.2529,245.5913 Q313.6138,245.7407 312.9082,245.7407 Q310.4014,245.7407 309.0815,244.0889 Q307.7617,242.437 307.7617,239.3159 Q307.7617,236.1865 309.0815,234.5347 Q310.4014,232.8828 312.9082,232.8828 Q313.6138,232.8828 314.2612,233.0322 Q314.9087,233.1816 315.4731,233.4805 L315.4731,236.2031 Q314.8423,235.6221 314.2488,235.3523 Q313.6553,235.0825 313.0244,235.0825 Q311.6797,235.0825 310.9949,236.1492 Q310.3101,237.2158 310.3101,239.3159 Q310.3101,241.4077 310.9949,242.4744 Q311.6797,243.541 313.0244,243.541 Q313.6553,243.541 314.2488,243.2712 Q314.8423,243.0015 315.4731,242.4204 Z " fill="#000000"/><text fill="#000000" font-family="sans-serif" font-size="14" lengthAdjust="spacing" textLength="72" x="327" y="244.291">tcp_socket</text><line style="stroke:#181818;stroke-width:0.5;" x1="299" x2="401" y1="255" y2="255"/><line style="stroke:#181818;stroke-width:0.5;" x1="299" x2="401" y1="263" y2="263"/></g><!--class socket_factory--><g id="elem_socket_factory"><rect codeLine="5" fill="#F1F1F1" height="48" id="socket_factory" rx="2.5" ry="2.5" style="stroke:#181818;stroke-width:0.5;" width="130" x="293" y="7"/><ellipse cx="308" cy="23" fill="#B4A7E5" rx="11" ry="11" style="stroke:#181818;stroke-width:1.0;"/><path d="M304.4277,19.2651 L304.4277,17.1069 L311.8071,17.1069 L311.8071,19.2651 L309.3418,19.2651 L309.3418,27.3418 L311.8071,27.3418 L311.8071,29.5 L304.4277,29.5 L304.4277,27.3418 L306.8931,27.3418 L306.8931,19.2651 Z " fill="#000000"/><text fill="#000000" font-family="sans-serif" font-size="14" font-style="italic" lengthAdjust="spacing" textLength="98" x="322" y="28.291">socket_factory</text><line style="stroke:#181818;stroke-width:0.5;" x1="294" x2="422" y1="39" y2="39"/><line style="stroke:#181818;stroke-width:0.5;" x1="294" x2="422" y1="47" y2="47"/></g><!--class tcp_socket_factory--><g id="elem_tcp_socket_factory"><rect codeLine="6" fill="#F1F1F1" height="48" id="tcp_socket_factory" rx="2.5" ry="2.5" style="stroke:#181818;stroke-width:0.5;" width="158" x="279" y="115"/><ellipse cx="294" cy="131" fill="#ADD1B2" rx="11" ry="11" style="stroke:#181818;stroke-width:1.0;"/><path d="M296.4731,137.1431 Q295.8921,137.4419 295.2529,137.5913 Q294.6138,137.7407 293.9082,137.7407 Q291.4014,137.7407 290.0815,136.0889 Q288.7617,134.437 288.7617,131.3159 Q288.7617,128.1865 290.0815,126.5347 Q291.4014,124.8828 293.9082,124.8828 Q294.6138,124.8828 295.2612,125.0322 Q295.9087,125.1816 296.4731,125.4805 L296.4731,128.2031 Q295.8423,127.6221 295.2488,127.3523 Q294.6553,127.0825 294.0244,127.0825 Q292.6797,127.0825 291.9949,128.1492 Q291.3101,129.2158 291.3101,131.3159 Q291.3101,133.4077 291.9949,134.4744 Q292.6797,135.541 294.0244,135.541 Q294.6553,135.541 295.2488,135.2712 Q295.8423,135.0015 296.4731,134.4204 Z " fill="#000000"/><text fill="#000000" font-family="sans-serif" font-size="14" lengthAdjust="spacing" textLength="126" x="308" y="136.291">tcp_socket_factory</text><line style="stroke:#181818;stroke-width:0.5;" x1="280" x2="436" y1="147" y2="147"/><line style="stroke:#181818;stroke-width:0.5;" x1="280" x2="436" y1="155" y2="155"/></g><!--class udp_socket_factory--><g id="elem_udp_socket_factory"><rect codeLine="7" fill="#F1F1F1" height="48" id="udp_socket_factory" rx="2.5" ry="2.5" style="stroke:#181818;stroke-width:0.5;" width="164" x="472" y="115"/><ellipse cx="487" cy="131" fill="#ADD1B2" rx="11" ry="11" style="stroke:#181818;stroke-width:1.0;"/><path d="M489.4731,137.1431 Q488.8921,137.4419 488.2529,137.5913 Q487.6138,137.7407 486.9082,137.7407 Q484.4014,137.7407 483.0815,136.0889 Q481.7617,134.437 481.7617,131.3159 Q481.7617,128.1865 483.0815,126.5347 Q484.4014,124.8828 486.9082,124.8828 Q487.6138,124.8828 488.2612,125.0322 Q488.9087,125.1816 489.4731,125.4805 L489.4731,128.2031 Q488.8423,127.6221 488.2488,127.3523 Q487.6553,127.0825 487.0244,127.0825 Q485.6797,127.0825 484.9949,128.1492 Q484.3101,129.2158 484.3101,131.3159 Q484.3101,133.4077 484.9949,134.4744 Q485.6797,135.541 487.0244,135.541 Q487.6553,135.541 488.2488,135.2712 Q488.8423,135.0015 489.4731,134.4204 Z " fill="#000000"/><text fill="#000000" font-family="sans-serif" font-size="14" lengthAdjust="spacing" textLength="132" x="501" y="136.291">udp_socket_factory</text><line style="stroke:#181818;stroke-width:0.5;" x1="473" x2="635" y1="147" y2="147"/><line style="stroke:#181818;stroke-width:0.5;" x1="473" x2="635" y1="155" y2="155"/></g><!--class udp_packet--><g id="elem_udp_packet"><rect codeLine="8" fill="#F1F1F1" height="48" id="udp_packet" rx="2.5" ry="2.5" style="stroke:#181818;stroke-width:0.5;" width="111" x="152.5" y="223"/><ellipse cx="167.5" cy="239" fill="#ADD1B2" rx="11" ry="11" style="stroke:#181818;stroke-width:1.0;"/><path d="M169.9731,245.1431 Q169.3921,245.4419 168.7529,245.5913 Q168.1138,245.7407 167.4082,245.7407 Q164.9014,245.7407 163.5815,244.0889 Q162.2617,242.437 162.2617,239.3159 Q162.2617,236.1865 163.5815,234.5347 Q164.9014,232.8828 167.4082,232.8828 Q168.1138,232.8828 168.7612,233.0322 Q169.4087,233.1816 169.9731,233.4805 L169.9731,236.2031 Q169.3423,235.6221 168.7488,235.3523 Q168.1553,235.0825 167.5244,235.0825 Q166.1797,235.0825 165.4949,236.1492 Q164.8101,237.2158 164.8101,239.3159 Q164.8101,241.4077 165.4949,242.4744 Q166.1797,243.541 167.5244,243.541 Q168.1553,243.541 168.7488,243.2712 Q169.3423,243.0015 169.9731,242.4204 Z " fill="#000000"/><text fill="#000000" font-family="sans-serif" font-size="14" lengthAdjust="spacing" textLength="79" x="181.5" y="244.291">udp_packet</text><line style="stroke:#181818;stroke-width:0.5;" x1="153.5" x2="262.5" y1="255" y2="255"/><line style="stroke:#181818;stroke-width:0.5;" x1="153.5" x2="262.5" y1="263" y2="263"/></g><!--class tcp_packet--><g id="elem_tcp_packet"><rect codeLine="9" fill="#F1F1F1" height="48" id="tcp_packet" rx="2.5" ry="2.5" style="stroke:#181818;stroke-width:0.5;" width="105" x="436.5" y="223"/><ellipse cx="451.5" cy="239" fill="#ADD1B2" rx="11" ry="11" style="stroke:#181818;stroke-width:1.0;"/><path d="M453.9731,245.1431 Q453.3921,245.4419 452.7529,245.5913 Q452.1138,245.7407 451.4082,245.7407 Q448.9014,245.7407 447.5815,244.0889 Q446.2617,242.437 446.2617,239.3159 Q446.2617,236.1865 447.5815,234.5347 Q448.9014,232.8828 451.4082,232.8828 Q452.1138,232.8828 452.7612,233.0322 Q453.4087,233.1816 453.9731,233.4805 L453.9731,236.2031 Q453.3423,235.6221 452.7488,235.3523 Q452.1553,235.0825 451.5244,235.0825 Q450.1797,235.0825 449.4949,236.1492 Q448.8101,237.2158 448.8101,239.3159 Q448.8101,241.4077 449.4949,242.4744 Q450.1797,243.541 451.5244,243.541 Q452.1553,243.541 452.7488,243.2712 Q453.3423,243.0015 453.9731,242.4204 Z " fill="#000000"/><text fill="#000000" font-family="sans-serif" font-size="14" lengthAdjust="spacing" textLength="73" x="465.5" y="244.291">tcp_packet</text><line style="stroke:#181818;stroke-width:0.5;" x1="437.5" x2="540.5" y1="255" y2="255"/><line style="stroke:#181818;stroke-width:0.5;" x1="437.5" x2="540.5" y1="263" y2="263"/></g><!--reverse link socket to udp_socket--><g id="link_socket_udp_socket"><path codeLine="11" d="M159.9057,173.9331 C135.8957,191.6131 117.52,205.13 93.53,222.79 " fill="none" id="socket-backto-udp_socket" style="stroke:#181818;stroke-width:1.0;stroke-dasharray:7.0,7.0;"/><polygon fill="none" points="174.4,163.26,156.348,169.1016,163.4633,178.7645,174.4,163.26" style="stroke:#181818;stroke-width:1.0;"/></g><!--reverse link socket to tcp_socket--><g id="link_socket_tcp_socket"><path codeLine="12" d="M252.0943,173.9331 C276.1043,191.6131 294.48,205.13 318.47,222.79 " fill="none" id="socket-backto-tcp_socket" style="stroke:#181818;stroke-width:1.0;stroke-dasharray:7.0,7.0;"/><polygon fill="none" points="237.6,163.26,248.5367,178.7645,255.652,169.1016,237.6,163.26" style="stroke:#181818;stroke-width:1.0;"/></g><!--reverse link socket_factory to tcp_socket_factory--><g id="link_socket_factory_tcp_socket_factory"><path codeLine="14" d="M358,73.26 C358,90.94 358,97.13 358,114.79 " fill="none" id="socket_factory-backto-tcp_socket_factory" style="stroke:#181818;stroke-width:1.0;stroke-dasharray:7.0,7.0;"/><polygon fill="none" points="358,55.26,352,73.26,364,73.26,358,55.26" style="stroke:#181818;stroke-width:1.0;"/></g><!--reverse link socket_factory to udp_socket_factory--><g id="link_socket_factory_udp_socket_factory"><path codeLine="15" d="M416.8438,63.821 C449.4138,81.431 478.12,96.97 510.75,114.61 " fill="none" id="socket_factory-backto-udp_socket_factory" style="stroke:#181818;stroke-width:1.0;stroke-dasharray:7.0,7.0;"/><polygon fill="none" points="401.01,55.26,413.9901,69.099,419.6975,58.5431,401.01,55.26" style="stroke:#181818;stroke-width:1.0;"/></g><!--link socket_factory to socket--><g id="link_socket_factory_socket"><path codeLine="17" d="M324.64,55.26 C299.39,72.87 269.7618,93.5384 244.4618,111.1784 " fill="none" id="socket_factory-to-socket" style="stroke:#181818;stroke-width:1.0;"/><polygon fill="#181818" points="239.54,114.61,249.2104,112.7437,243.6415,111.7503,244.6349,106.1814,239.54,114.61" style="stroke:#181818;stroke-width:1.0;"/></g><!--link udp_socket to udp_packet--><g id="link_udp_socket_udp_packet"><path codeLine="19" d="M117.32,247 C128.89,247 140.46,247 152.03,247 " fill="none" id="udp_socket-udp_packet" style="stroke:#181818;stroke-width:1.0;"/><text fill="#000000" font-family="sans-serif" font-size="13" lengthAdjust="spacing" textLength="8" x="124.9204" y="243.6273">1</text><text fill="#000000" font-family="sans-serif" font-size="13" lengthAdjust="spacing" textLength="8" x="136.3463" y="243.6273">1</text></g><!--link tcp_socket to tcp_packet--><g id="link_tcp_socket_tcp_packet"><path codeLine="20" d="M402.4,247 C413.67,247 424.95,247 436.23,247 " fill="none" id="tcp_socket-tcp_packet" style="stroke:#181818;stroke-width:1.0;"/><text fill="#000000" font-family="sans-serif" font-size="13" lengthAdjust="spacing" textLength="8" x="409.9788" y="243.5814">1</text><text fill="#000000" font-family="sans-serif" font-size="13" lengthAdjust="spacing" textLength="8" x="420.6015" y="243.5814">1</text></g><!--SRC=[oymhIIrAIqnELIZEJyvEBU5ApaaiBbOeJIc8Hn4eIOOBPA9fYGUoI_ABAZ5KeaaWpCGYKP28PXbKW0kYGy6cHayFsLN8maXkuqAr05qURZ4sPLZSXwvELzSE5avS2EKAIePA2hfW4iah25kHv95y1W00]--></g></svg>