<?xml version="1.0" encoding="us-ascii" standalone="no"?><svg xmlns="http://www.w3.org/2000/svg" xmlns:xlink="http://www.w3.org/1999/xlink" contentStyleType="text/css" height="170px" preserveAspectRatio="none" style="width:826px;height:170px;background:#FFFFFF;" version="1.1" viewBox="0 0 826 170" width="826px" zoomAndPan="magnify"><defs/><g><!--class socket--><g id="elem_socket"><rect codeLine="2" fill="#F1F1F1" height="48" id="socket" rx="2.5" ry="2.5" style="stroke:#181818;stroke-width:0.5;" width="76" x="95" y="7"/><ellipse cx="110" cy="23" fill="#B4A7E5" rx="11" ry="11" style="stroke:#181818;stroke-width:1.0;"/><path d="M106.4277,19.2651 L106.4277,17.1069 L113.8071,17.1069 L113.8071,19.2651 L111.3418,19.2651 L111.3418,27.3418 L113.8071,27.3418 L113.8071,29.5 L106.4277,29.5 L106.4277,27.3418 L108.8931,27.3418 L108.8931,19.2651 Z " fill="#000000"/><text fill="#000000" font-family="sans-serif" font-size="14" font-style="italic" lengthAdjust="spacing" textLength="44" x="124" y="28.291">socket</text><line style="stroke:#181818;stroke-width:0.5;" x1="96" x2="170" y1="39" y2="39"/><line style="stroke:#181818;stroke-width:0.5;" x1="96" x2="170" y1="47" y2="47"/></g><!--class udp_socket--><g id="elem_udp_socket"><rect codeLine="3" fill="#F1F1F1" height="48" id="udp_socket" rx="2.5" ry="2.5" style="stroke:#181818;stroke-width:0.5;" width="110" x="7" y="115"/><ellipse cx="22" cy="131" fill="#ADD1B2" rx="11" ry="11" style="stroke:#181818;stroke-width:1.0;"/><path d="M24.4731,137.1431 Q23.8921,137.4419 23.2529,137.5913 Q22.6138,137.7407 21.9082,137.7407 Q19.4014,137.7407 18.0815,136.0889 Q16.7617,134.437 16.7617,131.3159 Q16.7617,128.1865 18.0815,126.5347 Q19.4014,124.8828 21.9082,124.8828 Q22.6138,124.8828 23.2612,125.0322 Q23.9087,125.1816 24.4731,125.4805 L24.4731,128.2031 Q23.8423,127.6221 23.2488,127.3523 Q22.6553,127.0825 22.0244,127.0825 Q20.6797,127.0825 19.9949,128.1492 Q19.3101,129.2158 19.3101,131.3159 Q19.3101,133.4077 19.9949,134.4744 Q20.6797,135.541 22.0244,135.541 Q22.6553,135.541 23.2488,135.2712 Q23.8423,135.0015 24.4731,134.4204 Z " fill="#000000"/><text fill="#000000" font-family="sans-serif" font-size="14" lengthAdjust="spacing" textLength="78" x="36" y="136.291">udp_socket</text><line style="stroke:#181818;stroke-width:0.5;" x1="8" x2="116" y1="147" y2="147"/><line style="stroke:#181818;stroke-width:0.5;" x1="8" x2="116" y1="155" y2="155"/></g><!--class tcp_socket--><g id="elem_tcp_socket"><rect codeLine="4" fill="#F1F1F1" height="48" id="tcp_socket" rx="2.5" ry="2.5" style="stroke:#181818;stroke-width:0.5;" width="104" x="152" y="115"/><ellipse cx="167" cy="131" fill="#ADD1B2" rx="11" ry="11" style="stroke:#181818;stroke-width:1.0;"/><path d="M169.4731,137.1431 Q168.8921,137.4419 168.2529,137.5913 Q167.6138,137.7407 166.9082,137.7407 Q164.4014,137.7407 163.0815,136.0889 Q161.7617,134.437 161.7617,131.3159 Q161.7617,128.1865 163.0815,126.5347 Q164.4014,124.8828 166.9082,124.8828 Q167.6138,124.8828 168.2612,125.0322 Q168.9087,125.1816 169.4731,125.4805 L169.4731,128.2031 Q168.8423,127.6221 168.2488,127.3523 Q167.6553,127.0825 167.0244,127.0825 Q165.6797,127.0825 164.9949,128.1492 Q164.3101,129.2158 164.3101,131.3159 Q164.3101,133.4077 164.9949,134.4744 Q165.6797,135.541 167.0244,135.541 Q167.6553,135.541 168.2488,135.2712 Q168.8423,135.0015 169.4731,134.4204 Z " fill="#000000"/><text fill="#000000" font-family="sans-serif" font-size="14" lengthAdjust="spacing" textLength="72" x="181" y="136.291">tcp_socket</text><line style="stroke:#181818;stroke-width:0.5;" x1="153" x2="255" y1="147" y2="147"/><line style="stroke:#181818;stroke-width:0.5;" x1="153" x2="255" y1="155" y2="155"/></g><!--class socket_factory--><g id="elem_socket_factory"><rect codeLine="5" fill="#F1F1F1" height="48" id="socket_factory" rx="2.5" ry="2.5" style="stroke:#181818;stroke-width:0.5;" width="130" x="403" y="7"/><ellipse cx="418" cy="23" fill="#B4A7E5" rx="11" ry="11" style="stroke:#181818;stroke-width:1.0;"/><path d="M414.4277,19.2651 L414.4277,17.1069 L421.8071,17.1069 L421.8071,19.2651 L419.3418,19.2651 L419.3418,27.3418 L421.8071,27.3418 L421.8071,29.5 L414.4277,29.5 L414.4277,27.3418 L416.8931,27.3418 L416.8931,19.2651 Z " fill="#000000"/><text fill="#000000" font-family="sans-serif" font-size="14" font-style="italic" lengthAdjust="spacing" textLength="98" x="432" y="28.291">socket_factory</text><line style="stroke:#181818;stroke-width:0.5;" x1="404" x2="532" y1="39" y2="39"/><line style="stroke:#181818;stroke-width:0.5;" x1="404" x2="532" y1="47" y2="47"/></g><!--class tcp_socket_factory--><g id="elem_tcp_socket_factory"><rect codeLine="6" fill="#F1F1F1" height="48" id="tcp_socket_factory" rx="2.5" ry="2.5" style="stroke:#181818;stroke-width:0.5;" width="158" x="291" y="115"/><ellipse cx="306" cy="131" fill="#ADD1B2" rx="11" ry="11" style="stroke:#181818;stroke-width:1.0;"/><path d="M308.4731,137.1431 Q307.8921,137.4419 307.2529,137.5913 Q306.6138,137.7407 305.9082,137.7407 Q303.4014,137.7407 302.0815,136.0889 Q300.7617,134.437 300.7617,131.3159 Q300.7617,128.1865 302.0815,126.5347 Q303.4014,124.8828 305.9082,124.8828 Q306.6138,124.8828 307.2612,125.0322 Q307.9087,125.1816 308.4731,125.4805 L308.4731,128.2031 Q307.8423,127.6221 307.2488,127.3523 Q306.6553,127.0825 306.0244,127.0825 Q304.6797,127.0825 303.9949,128.1492 Q303.3101,129.2158 303.3101,131.3159 Q303.3101,133.4077 303.9949,134.4744 Q304.6797,135.541 306.0244,135.541 Q306.6553,135.541 307.2488,135.2712 Q307.8423,135.0015 308.4731,134.4204 Z " fill="#000000"/><text fill="#000000" font-family="sans-serif" font-size="14" lengthAdjust="spacing" textLength="126" x="320" y="136.291">tcp_socket_factory</text><line style="stroke:#181818;stroke-width:0.5;" x1="292" x2="448" y1="147" y2="147"/><line style="stroke:#181818;stroke-width:0.5;" x1="292" x2="448" y1="155" y2="155"/></g><!--class udp_socket_factory--><g id="elem_udp_socket_factory"><rect codeLine="7" fill="#F1F1F1" height="48" id="udp_socket_factory" rx="2.5" ry="2.5" style="stroke:#181818;stroke-width:0.5;" width="164" x="484" y="115"/><ellipse cx="499" cy="131" fill="#ADD1B2" rx="11" ry="11" style="stroke:#181818;stroke-width:1.0;"/><path d="M501.4731,137.1431 Q500.8921,137.4419 500.2529,137.5913 Q499.6138,137.7407 498.9082,137.7407 Q496.4014,137.7407 495.0815,136.0889 Q493.7617,134.437 493.7617,131.3159 Q493.7617,128.1865 495.0815,126.5347 Q496.4014,124.8828 498.9082,124.8828 Q499.6138,124.8828 500.2612,125.0322 Q500.9087,125.1816 501.4731,125.4805 L501.4731,128.2031 Q500.8423,127.6221 500.2488,127.3523 Q499.6553,127.0825 499.0244,127.0825 Q497.6797,127.0825 496.9949,128.1492 Q496.3101,129.2158 496.3101,131.3159 Q496.3101,133.4077 496.9949,134.4744 Q497.6797,135.541 499.0244,135.541 Q499.6553,135.541 500.2488,135.2712 Q500.8423,135.0015 501.4731,134.4204 Z " fill="#000000"/><text fill="#000000" font-family="sans-serif" font-size="14" lengthAdjust="spacing" textLength="132" x="513" y="136.291">udp_socket_factory</text><line style="stroke:#181818;stroke-width:0.5;" x1="485" x2="647" y1="147" y2="147"/><line style="stroke:#181818;stroke-width:0.5;" x1="485" x2="647" y1="155" y2="155"/></g><!--class udp_packet--><g id="elem_udp_packet"><rect codeLine="8" fill="#F1F1F1" height="48" id="udp_packet" rx="2.5" ry="2.5" style="stroke:#181818;stroke-width:0.5;" width="111" x="568.5" y="7"/><ellipse cx="583.5" cy="23" fill="#ADD1B2" rx="11" ry="11" style="stroke:#181818;stroke-width:1.0;"/><path d="M585.9731,29.1431 Q585.3921,29.4419 584.7529,29.5913 Q584.1138,29.7407 583.4082,29.7407 Q580.9014,29.7407 579.5815,28.0889 Q578.2617,26.437 578.2617,23.3159 Q578.2617,20.1865 579.5815,18.5347 Q580.9014,16.8828 583.4082,16.8828 Q584.1138,16.8828 584.7612,17.0322 Q585.4087,17.1816 585.9731,17.4805 L585.9731,20.2031 Q585.3423,19.6221 584.7488,19.3523 Q584.1553,19.0825 583.5244,19.0825 Q582.1797,19.0825 581.4949,20.1492 Q580.8101,21.2158 580.8101,23.3159 Q580.8101,25.4077 581.4949,26.4744 Q582.1797,27.541 583.5244,27.541 Q584.1553,27.541 584.7488,27.2712 Q585.3423,27.0015 585.9731,26.4204 Z " fill="#000000"/><text fill="#000000" font-family="sans-serif" font-size="14" lengthAdjust="spacing" textLength="79" x="597.5" y="28.291">udp_packet</text><line style="stroke:#181818;stroke-width:0.5;" x1="569.5" x2="678.5" y1="39" y2="39"/><line style="stroke:#181818;stroke-width:0.5;" x1="569.5" x2="678.5" y1="47" y2="47"/></g><!--class tcp_packet--><g id="elem_tcp_packet"><rect codeLine="9" fill="#F1F1F1" height="48" id="tcp_packet" rx="2.5" ry="2.5" style="stroke:#181818;stroke-width:0.5;" width="105" x="714.5" y="7"/><ellipse cx="729.5" cy="23" fill="#ADD1B2" rx="11" ry="11" style="stroke:#181818;stroke-width:1.0;"/><path d="M731.9731,29.1431 Q731.3921,29.4419 730.7529,29.5913 Q730.1138,29.7407 729.4082,29.7407 Q726.9014,29.7407 725.5815,28.0889 Q724.2617,26.437 724.2617,23.3159 Q724.2617,20.1865 725.5815,18.5347 Q726.9014,16.8828 729.4082,16.8828 Q730.1138,16.8828 730.7612,17.0322 Q731.4087,17.1816 731.9731,17.4805 L731.9731,20.2031 Q731.3423,19.6221 730.7488,19.3523 Q730.1553,19.0825 729.5244,19.0825 Q728.1797,19.0825 727.4949,20.1492 Q726.8101,21.2158 726.8101,23.3159 Q726.8101,25.4077 727.4949,26.4744 Q728.1797,27.541 729.5244,27.541 Q730.1553,27.541 730.7488,27.2712 Q731.3423,27.0015 731.9731,26.4204 Z " fill="#000000"/><text fill="#000000" font-family="sans-serif" font-size="14" lengthAdjust="spacing" textLength="73" x="743.5" y="28.291">tcp_packet</text><line style="stroke:#181818;stroke-width:0.5;" x1="715.5" x2="818.5" y1="39" y2="39"/><line style="stroke:#181818;stroke-width:0.5;" x1="715.5" x2="818.5" y1="47" y2="47"/></g><!--reverse link socket to udp_socket--><g id="link_socket_udp_socket"><path codeLine="11" d="M107.4042,70.216 C95.5642,87.896 89.37,97.13 77.54,114.79 " fill="none" id="socket-backto-udp_socket" style="stroke:#181818;stroke-width:1.0;stroke-dasharray:7.0,7.0;"/><polygon fill="none" points="117.42,55.26,102.4188,66.8774,112.3895,73.5547,117.42,55.26" style="stroke:#181818;stroke-width:1.0;"/></g><!--reverse link socket to tcp_socket--><g id="link_socket_tcp_socket"><path codeLine="12" d="M158.5958,70.216 C170.4358,87.896 176.63,97.13 188.46,114.79 " fill="none" id="socket-backto-tcp_socket" style="stroke:#181818;stroke-width:1.0;stroke-dasharray:7.0,7.0;"/><polygon fill="none" points="148.58,55.26,153.6105,73.5547,163.5812,66.8774,148.58,55.26" style="stroke:#181818;stroke-width:1.0;"/></g><!--reverse link socket_factory to tcp_socket_factory--><g id="link_socket_factory_tcp_socket_factory"><path codeLine="14" d="M434.2729,68.479 C417.9329,86.159 407.78,97.13 391.46,114.79 " fill="none" id="socket_factory-backto-tcp_socket_factory" style="stroke:#181818;stroke-width:1.0;stroke-dasharray:7.0,7.0;"/><polygon fill="none" points="446.49,55.26,429.8666,64.4066,438.6792,72.5514,446.49,55.26" style="stroke:#181818;stroke-width:1.0;"/></g><!--reverse link socket_factory to udp_socket_factory--><g id="link_socket_factory_udp_socket_factory"><path codeLine="15" d="M501.7271,68.479 C518.0671,86.159 528.22,97.13 544.54,114.79 " fill="none" id="socket_factory-backto-udp_socket_factory" style="stroke:#181818;stroke-width:1.0;stroke-dasharray:7.0,7.0;"/><polygon fill="none" points="489.51,55.26,497.3208,72.5514,506.1334,64.4066,489.51,55.26" style="stroke:#181818;stroke-width:1.0;"/></g><!--SRC=[oymhIIrAIqnELIZEJyvEBU5ApaaiBbOeJIc8Hn4eIOOBPA9fYGUoI_ABAZ5KeaaWpCGYKP28PXbKW0kYGy6cHayFsLN8maXkuqAr05qURZ4sPLZS1m00]--></g></svg>